<?xml version="1.0" standalone="no"?>
<!DOCTYPE svg PUBLIC "-//W3C//DTD SVG 20010904//EN"
 "http://www.w3.org/TR/2001/REC-SVG-20010904/DTD/svg10.dtd">
<svg version="1.0" xmlns="http://www.w3.org/2000/svg"
 width="1010.000000pt" height="347.000000pt" viewBox="0 0 1010.000000 347.000000"
 preserveAspectRatio="xMidYMid meet">

<g transform="translate(0.000000,347.000000) scale(0.100000,-0.100000)"
fill="#000000" stroke="none">
<path d="M350 3055 l0 -155 4783 2 4782 3 3 153 3 152 -4786 0 -4785 0 0 -155z"/>
<path d="M9175 2762 c-156 -14 -259 -54 -333 -130 -97 -100 -136 -212 -136
-392 0 -133 13 -196 60 -299 54 -118 148 -232 306 -372 124 -109 204 -203 244
-284 31 -63 37 -86 41 -162 6 -108 -8 -166 -51 -209 -77 -77 -231 -47 -273 53
-7 19 -16 83 -20 143 l-6 110 -154 0 -153 0 0 -108 c0 -137 13 -208 55 -299
57 -124 155 -205 285 -233 86 -19 291 -9 364 18 127 46 215 143 263 287 24 71
27 95 27 220 -1 261 -64 398 -279 605 -248 238 -293 289 -332 368 -36 72 -38
81 -38 171 0 78 4 102 20 130 33 57 66 74 137 75 120 1 164 -53 175 -218 l6
-96 154 0 153 0 0 93 c-1 238 -90 413 -247 483 -65 29 -200 52 -268 46z"/>
<path d="M622 1663 l3 -1068 160 0 160 0 5 345 5 345 63 124 c36 69 67 120 72
115 5 -5 39 -110 75 -234 172 -578 196 -656 205 -678 9 -22 13 -22 174 -22 91
0 167 4 170 9 3 5 -85 310 -195 679 l-201 670 196 385 c108 212 196 388 196
392 0 3 -75 4 -167 3 l-166 -3 -205 -432 c-113 -238 -209 -433 -214 -433 -4 0
-8 196 -8 435 l0 435 -165 0 -165 0 2 -1067z"/>
<path d="M1880 1665 l0 -1065 23 -5 c12 -3 211 -4 442 -3 l420 3 3 152 3 153
-273 2 -273 3 -3 913 -2 912 -170 0 -170 0 0 -1065z"/>
<path d="M3176 2558 c-15 -95 -54 -337 -87 -538 -33 -201 -73 -446 -89 -545
-16 -99 -54 -333 -85 -520 -30 -186 -53 -345 -51 -352 8 -19 294 -19 302 1 3
7 18 100 33 206 19 125 34 195 42 201 8 5 89 9 181 9 129 0 170 -3 181 -14 8
-9 24 -88 41 -207 15 -113 32 -197 39 -201 16 -10 314 -10 321 0 2 4 1 28 -4
52 -5 25 -23 131 -39 235 -17 105 -51 314 -75 465 -64 391 -120 736 -167 1025
-22 138 -45 274 -50 303 l-10 52 -228 0 -227 0 -28 -172z m318 -708 c37 -261
70 -490 73 -507 l5 -33 -152 0 -152 0 6 33 c3 17 24 165 46 327 22 162 49 356
60 430 10 74 22 159 25 188 4 30 11 50 15 45 4 -4 38 -222 74 -483z"/>
<path d="M3940 2719 c0 -7 89 -278 198 -603 l197 -591 5 -465 5 -465 160 0
160 0 5 465 6 465 201 600 201 600 -160 3 c-89 1 -162 1 -164 0 -3 -3 -75
-248 -173 -587 -49 -167 -57 -189 -65 -180 -2 2 -53 175 -113 384 l-110 380
-177 3 c-130 2 -176 -1 -176 -9z"/>
<path d="M5230 1665 l0 -1065 23 -5 c12 -3 211 -4 442 -3 l420 3 3 152 3 153
-273 2 -273 3 -3 913 -2 912 -170 0 -170 0 0 -1065z"/>
<path d="M6537 2623 c-28 -177 -63 -397 -187 -1153 -121 -742 -140 -863 -134
-871 3 -5 70 -9 150 -9 166 0 155 -7 168 105 17 142 48 310 59 317 21 14 341
9 359 -4 12 -10 23 -66 43 -208 15 -107 32 -198 38 -202 16 -11 315 -10 321 0
3 5 -3 58 -14 118 -10 60 -37 222 -59 359 -22 138 -58 360 -80 495 -70 428
-110 674 -146 898 -19 119 -37 227 -40 240 l-5 22 -228 0 -228 0 -17 -107z
m308 -768 c35 -253 67 -479 70 -502 l6 -43 -151 0 -151 0 5 33 c9 55 34 229
81 572 55 404 56 408 63 420 8 13 1 56 77 -480z"/>
<path d="M7522 1663 l3 -1068 295 0 c330 0 399 8 500 57 178 87 240 227 240
544 0 254 -31 367 -126 460 -25 23 -60 49 -79 56 -19 6 -35 15 -35 19 0 4 15
16 33 28 71 44 124 119 153 216 24 83 25 352 1 442 -44 166 -138 260 -299 298
-49 11 -135 15 -376 15 l-312 0 2 -1067z m588 742 c63 -37 75 -78 75 -255 0
-147 -1 -157 -25 -199 -37 -65 -82 -85 -202 -89 l-98 -4 0 279 c0 154 3 283 8
287 4 5 52 6 107 4 77 -2 108 -8 135 -23z m-18 -855 c57 -16 96 -54 113 -112
21 -73 30 -277 16 -368 -23 -146 -57 -170 -238 -170 l-123 0 0 330 0 330 98 0
c53 0 114 -5 134 -10z"/>
<path d="M350 305 l0 -155 4783 2 4782 3 3 153 3 152 -4786 0 -4785 0 0 -155z"/>
</g>
</svg>
