<svg id="Klip_Symbol" data-name="Klip/Symbol" xmlns="http://www.w3.org/2000/svg" xmlns:xlink="http://www.w3.org/1999/xlink" width="26" height="13" viewBox="0 0 26 13">
  <defs>
    <clipPath id="clip-path">
      <path id="Path" d="M0,0H26V13H0Z" fill="none"/>
    </clipPath>
  </defs>
  <path id="Path-2" data-name="Path" d="M0,0H26V13H0Z" fill="none"/>
  <g id="Klip_Symbol-2" data-name="Klip/Symbol" clip-path="url(#clip-path)">
    <path id="Path-3" data-name="Path" d="M24.827,2.78l-.032-.155A3.429,3.429,0,0,0,21.131,0H3.8A3.452,3.452,0,0,0,.122,2.636L.09,2.791A6.317,6.317,0,0,0,0,3.929v4.55a7.8,7.8,0,0,0,.061.974l0,.017C.29,11.341,1.687,12.458,3.8,12.458h12.53a.2.2,0,0,0,.2-.2h0V4.892h0a.2.2,0,0,0-.2-.2H15.6a.2.2,0,0,0-.2.2v0h0V11.35H4.079A2.686,2.686,0,0,1,1.124,8.519v-4.6A2.659,2.659,0,0,1,4.079,1.113H20.853a2.641,2.641,0,0,1,2.94,2.795v4.6a2.682,2.682,0,0,1-2.943,2.837l-.384.005-.458,0h-.215a.2.2,0,0,0-.2.2v.709h0a.2.2,0,0,0,.2.2h.5l.2,0h.631c2.112,0,3.495-1.123,3.722-2.994l0-.017a7.79,7.79,0,0,0,.061-.974V3.918A6.315,6.315,0,0,0,24.827,2.78Z" transform="translate(0.542 0.271)" fill="#fff"/>
  </g>
</svg>
