<svg xmlns="http://www.w3.org/2000/svg" width="25" height="25" viewBox="0 0 25 25">
  <g id="그룹_20383" data-name="그룹 20383" transform="translate(0.5 0.5)">
    <g id="그룹_19241" data-name="그룹 19241">
      <path id="패스_18471" data-name="패스 18471" d="M21,2a1,1,0,0,1,0,2H3A1,1,0,0,1,3,2Zm0-2H3A3,3,0,0,0,3,6H21a3,3,0,0,0,0-6" fill="none" stroke="#707070" stroke-width="1"/>
      <path id="패스_18472" data-name="패스 18472" d="M21,11a1,1,0,0,1,0,2H3a1,1,0,0,1,0-2Zm0-2H3a3,3,0,0,0,0,6H21a3,3,0,0,0,0-6" fill="none" stroke="#707070" stroke-width="1"/>
      <path id="패스_18473" data-name="패스 18473" d="M21,20a1,1,0,0,1,0,2H3a1,1,0,0,1,0-2Zm0-2H3a3,3,0,0,0,0,6H21a3,3,0,0,0,0-6" fill="none" stroke="#707070" stroke-width="1"/>
    </g>
  </g>
</svg>
