<svg xmlns="http://www.w3.org/2000/svg" width="18" height="18" viewBox="0 0 18 18">
  <path id="패스_19514" data-name="패스 19514" d="M67.333,195.667h-.8a6.628,6.628,0,0,0-.973-2.341l.568-.568a.666.666,0,0,0,0-.943l-.943-.943a.666.666,0,0,0-.943,0l-.568.568a6.629,6.629,0,0,0-2.341-.973v-.8a.667.667,0,0,0-.667-.667H59.333a.667.667,0,0,0-.667.667v.8a6.624,6.624,0,0,0-2.341.973l-.568-.568a.666.666,0,0,0-.943,0l-.943.943a.666.666,0,0,0,0,.943l.568.568a6.628,6.628,0,0,0-.973,2.341h-.8a.667.667,0,0,0-.667.667v1.333a.667.667,0,0,0,.667.667h.8a6.623,6.623,0,0,0,.973,2.341l-.568.568a.666.666,0,0,0,0,.943l.943.943a.666.666,0,0,0,.943,0l.568-.568a6.623,6.623,0,0,0,2.341.973v.8a.667.667,0,0,0,.667.667h1.333a.667.667,0,0,0,.667-.667v-.8a6.628,6.628,0,0,0,2.341-.973l.568.568a.666.666,0,0,0,.943,0l.943-.943a.666.666,0,0,0,0-.943l-.568-.568a6.623,6.623,0,0,0,.973-2.341h.8a.667.667,0,0,0,.667-.667v-1.333A.667.667,0,0,0,67.333,195.667Zm-7.333,4A2.667,2.667,0,1,1,62.667,197,2.669,2.669,0,0,1,60,199.667Z" transform="translate(-51 -188)" fill="none" stroke="#046fd3" stroke-linejoin="round" stroke-miterlimit="10" stroke-width="2"/>
</svg>
